<svg width="20" height="20" viewBox="0 0 20 20" fill="none" xmlns="http://www.w3.org/2000/svg">
<path fill-rule="evenodd" clip-rule="evenodd" d="M11.9975 13.3019C12.0921 13.5702 12.3456 13.7497 12.6301 13.7497C13.1005 13.7497 13.4248 13.2779 13.2561 12.8387L10.9872 6.92983C10.8295 6.51903 10.4349 6.24788 9.9949 6.24788C9.55485 6.24788 9.1603 6.51903 9.00256 6.92983L6.73619 12.8322C6.56634 13.2745 6.89289 13.7497 7.36671 13.7497C7.65322 13.7497 7.90855 13.5689 8.00374 13.2987L8.48729 11.926H11.5129L11.9975 13.3019ZM11.0777 10.6827H8.93284L9.969 7.71923H10.0208L11.0777 10.6827Z" fill="currentColor"/>
<path fill-rule="evenodd" clip-rule="evenodd" d="M6.88556 2.16846C6.21219 2.16845 5.66147 2.16844 5.21391 2.20501C4.75066 2.24286 4.33226 2.32359 3.94152 2.52269C3.32999 2.83428 2.83281 3.33146 2.52122 3.94299C2.32213 4.33373 2.24139 4.75213 2.20354 5.21539C2.16698 5.66295 2.16698 6.21365 2.16699 6.88702V13.1165C2.16698 13.7899 2.16698 14.3406 2.20354 14.7882C2.24139 15.2515 2.32213 15.6699 2.52122 16.0606C2.83281 16.6721 3.32999 17.1693 3.94152 17.4809C4.33226 17.68 4.75066 17.7607 5.21391 17.7986C5.66148 17.8351 6.21218 17.8351 6.88556 17.8351H13.115C13.7884 17.8351 14.3391 17.8351 14.7867 17.7986C15.25 17.7607 15.6683 17.68 16.0591 17.4809C16.6706 17.1693 17.1678 16.6721 17.4794 16.0606C17.6785 15.6699 17.7592 15.2515 17.7971 14.7882C17.8336 14.3406 17.8336 13.7899 17.8336 13.1165V6.88704C17.8336 6.21366 17.8336 5.66295 17.7971 5.21539C17.7592 4.75213 17.6785 4.33373 17.4794 3.94299C17.1678 3.33146 16.6706 2.83428 16.0591 2.52269C15.6683 2.32359 15.25 2.24286 14.7867 2.20501C14.3391 2.16844 13.7884 2.16845 13.1151 2.16846H6.88556ZM4.6225 3.8592C4.76654 3.7858 4.96556 3.7303 5.33606 3.70003C5.71532 3.66904 6.20454 3.66846 6.91698 3.66846H13.0836C13.7961 3.66846 14.2853 3.66904 14.6645 3.70003C15.035 3.7303 15.2341 3.7858 15.3781 3.8592C15.7074 4.02697 15.9751 4.29469 16.1429 4.62397C16.2163 4.76801 16.2718 4.96704 16.302 5.33754C16.333 5.71679 16.3336 6.20602 16.3336 6.91846V13.0851C16.3336 13.7976 16.333 14.2868 16.302 14.666C16.2718 15.0365 16.2163 15.2356 16.1429 15.3796C15.9751 15.7089 15.7074 15.9766 15.3781 16.1444C15.2341 16.2178 15.035 16.2733 14.6645 16.3036C14.2853 16.3345 13.7961 16.3351 13.0836 16.3351H6.91698C6.20454 16.3351 5.71532 16.3345 5.33606 16.3036C4.96556 16.2733 4.76654 16.2178 4.6225 16.1444C4.29322 15.9766 4.0255 15.7089 3.85773 15.3796C3.78434 15.2356 3.72883 15.0365 3.69856 14.666C3.66757 14.2868 3.66699 13.7976 3.66699 13.0851V6.91846C3.66699 6.20602 3.66757 5.71679 3.69856 5.33754C3.72883 4.96704 3.78434 4.76801 3.85773 4.62397C4.0255 4.29469 4.29322 4.02697 4.6225 3.8592Z" fill="currentColor"/>
</svg>
