<svg width="14" height="14" viewBox="0 0 14 14" fill="none" xmlns="http://www.w3.org/2000/svg">
<g clip-path="url(#clip0_3233_9519)">
<path d="M7.07129 -0.0673828C7.40256 -0.0672614 7.6709 0.201907 7.6709 0.533203V5.62402L11.2705 2.02441C11.5048 1.7901 11.8848 1.7901 12.1191 2.02441C12.3528 2.2587 12.353 2.63794 12.1191 2.87207L8.51855 6.47168H13.6094C13.9407 6.47174 14.2089 6.74001 14.209 7.07129C14.2088 7.40227 13.9413 7.67051 13.6104 7.6709H8.51855L12.1182 11.2705C12.3524 11.5048 12.3525 11.8849 12.1182 12.1191C11.8839 12.3527 11.5046 12.3529 11.2705 12.1191L7.6709 8.51953V13.6094C7.67073 13.9405 7.40245 14.2089 7.07129 14.209C6.74018 14.2088 6.47186 13.9405 6.47168 13.6094V8.51953L2.87207 12.1191C2.63793 12.3529 2.25867 12.3527 2.02441 12.1191C1.79013 11.8849 1.79019 11.5048 2.02441 11.2705L5.62305 7.6709H0.532227C0.201297 7.67051 -0.0662298 7.40227 -0.0664062 7.07129C-0.0663431 6.74001 0.201922 6.47174 0.533203 6.47168H5.62305L2.02344 2.87207C1.78956 2.63794 1.78981 2.2587 2.02344 2.02441C2.25775 1.7901 2.63776 1.7901 2.87207 2.02441L6.47168 5.62402V0.532227C6.47196 0.201202 6.74024 -0.0672063 7.07129 -0.0673828Z" fill="currentColor"/>
</g>
<defs>
<clipPath id="clip0_3233_9519">
<rect width="14" height="14" fill="white"/>
</clipPath>
</defs>
</svg>
