<svg width="14" height="15" viewBox="0 0 14 15" fill="none" xmlns="http://www.w3.org/2000/svg">
<path fill-rule="evenodd" clip-rule="evenodd" d="M6.99996 0.29248C4.24921 0.29248 2.01929 2.5224 2.01929 5.27316C2.01929 7.13144 3.03697 8.75096 4.54328 9.60666L4.54328 9.73781C4.54326 10.0013 4.54325 10.2345 4.55904 10.4278C4.57586 10.6336 4.61356 10.8469 4.71934 11.0545C4.87421 11.3584 5.12133 11.6056 5.42528 11.7604C5.63289 11.8662 5.84615 11.9039 6.05196 11.9207C6.24523 11.9365 6.47843 11.9365 6.74192 11.9365H7.25797C7.52147 11.9365 7.7547 11.9365 7.94796 11.9207C8.15378 11.9039 8.36704 11.8662 8.57465 11.7604C8.8786 11.6056 9.12571 11.3584 9.28058 11.0545C9.38637 10.8469 9.42406 10.6336 9.44088 10.4278C9.45667 10.2346 9.45666 10.0014 9.45665 9.73788L9.45665 9.60666C10.963 8.75096 11.9806 7.13144 11.9806 5.27316C11.9806 2.5224 9.75071 0.29248 6.99996 0.29248ZM3.23084 5.27302C3.23084 3.19138 4.91835 1.50386 7 1.50386C9.08165 1.50386 10.7692 3.19138 10.7692 5.27302C10.7692 6.78381 9.88029 8.08823 8.59434 8.68953C8.38129 8.78914 8.24516 9.00307 8.24516 9.23826V9.91717C8.24516 10.3401 8.23769 10.408 8.2254 10.4458C8.18545 10.5687 8.08906 10.6651 7.96612 10.7051C7.92829 10.7174 7.86046 10.7248 7.43749 10.7248H6.5625C6.13953 10.7248 6.0717 10.7174 6.03387 10.7051C5.91093 10.6651 5.81454 10.5687 5.77459 10.4458C5.7623 10.408 5.75483 10.3401 5.75483 9.91717V9.23826C5.75483 9.00308 5.6187 8.78915 5.40565 8.68953C4.1197 8.08823 3.23084 6.78381 3.23084 5.27302Z" fill="#6366F1"/>
<path d="M5.48558 13.081C5.15103 13.081 4.87983 13.3522 4.87983 13.6867C4.87983 14.0213 5.15103 14.2925 5.48558 14.2925H8.51437C8.84892 14.2925 9.12013 14.0213 9.12013 13.6867C9.12013 13.3522 8.84892 13.081 8.51437 13.081H5.48558Z" fill="#6366F1"/>
</svg>
