<svg width="50" height="50" viewBox="0 0 50 50" fill="none" xmlns="http://www.w3.org/2000/svg">
<path fill-rule="evenodd" clip-rule="evenodd" d="M24.9993 15.8334C19.3614 15.8334 14.791 20.4038 14.791 26.0417C14.791 31.6796 19.3614 36.2501 24.9993 36.2501C30.6372 36.2501 35.2076 31.6796 35.2076 26.0417C35.2076 20.4038 30.6372 15.8334 24.9993 15.8334ZM18.541 26.0417C18.541 22.4749 21.4324 19.5834 24.9993 19.5834C28.5661 19.5834 31.4576 22.4749 31.4576 26.0417C31.4576 29.6086 28.5661 32.5001 24.9993 32.5001C21.4324 32.5001 18.541 29.6086 18.541 26.0417Z" fill="currentColor"/>
<path fill-rule="evenodd" clip-rule="evenodd" d="M22.2066 4.89613C21.2431 4.89529 20.4303 4.89457 19.6529 5.10375C18.9696 5.2876 18.324 5.59006 17.7453 5.99734C17.087 6.4607 16.5673 7.08558 15.9512 7.82641L13.1853 11.1462L11.8014 11.1462C10.6975 11.1462 9.75754 11.1462 8.9858 11.2092C8.17505 11.2755 7.38632 11.4205 6.6323 11.8047C5.49549 12.384 4.57123 13.3082 3.992 14.445C3.60781 15.1991 3.46274 15.9878 3.3965 16.7986C3.33345 17.5703 3.33347 18.5102 3.3335 19.614V35.595C3.33347 36.6988 3.33345 37.6389 3.3965 38.4106C3.46274 39.2213 3.60781 40.0101 3.992 40.7641C4.57123 41.9009 5.49549 42.8252 6.6323 43.4044C7.38632 43.7886 8.17505 43.9337 8.9858 43.9999C9.7575 44.063 10.6974 44.0629 11.8013 44.0629H38.1988C39.3026 44.0629 40.2427 44.063 41.0144 43.9999C41.8251 43.9337 42.6138 43.7886 43.3679 43.4044C44.5047 42.8252 45.4289 41.9009 46.0082 40.7641C46.3924 40.0101 46.5374 39.2213 46.6037 38.4106C46.6667 37.6389 46.6667 36.699 46.6667 35.5951V19.6141C46.6667 18.5103 46.6667 17.5703 46.6037 16.7986C46.5374 15.9878 46.3924 15.1991 46.0082 14.445C45.4289 13.3082 44.5047 12.384 43.3679 11.8047C42.6138 11.4205 41.8251 11.2755 41.0144 11.2092C40.2426 11.1462 39.3027 11.1462 38.1988 11.1462L36.8166 11.1462L34.0488 7.82522C33.4326 7.08468 32.9129 6.46004 32.2547 5.99688C31.6761 5.58976 31.0305 5.28743 30.3474 5.10366C29.5702 4.89458 28.7576 4.89529 27.7943 4.89613L22.2066 4.89613ZM20.8233 8.68148C20.9835 8.65311 21.1721 8.64638 22.0035 8.64638H27.9975C28.8287 8.64638 29.0172 8.6531 29.1774 8.68146C29.5751 8.75185 29.947 8.92605 30.2557 9.18642C30.38 9.29134 30.5059 9.43186 31.0381 10.0704L34.0611 13.6972L34.0859 13.7272C34.1746 13.8346 34.3416 14.0368 34.5458 14.2091C34.9386 14.5405 35.412 14.7622 35.9181 14.8517C36.1812 14.8983 36.4435 14.8971 36.5827 14.8965L36.6216 14.8964H38.9584C40.6554 14.8964 41.0593 14.9195 41.3333 15.0085C42.0309 15.2352 42.5779 15.7822 42.8046 16.4799C42.8936 16.7539 42.9168 17.1577 42.9168 18.8547V36.3547C42.9168 38.0517 42.8936 38.4555 42.8046 38.7295C42.5779 39.4272 42.0309 39.9742 41.3333 40.2009C41.0593 40.2899 40.6554 40.313 38.9584 40.313H11.0419C9.34488 40.313 8.94106 40.2899 8.66705 40.2009C7.96939 39.9742 7.42241 39.4272 7.19572 38.7295C7.10669 38.4555 7.08356 38.0517 7.08356 36.3547V18.8547C7.08356 17.1577 7.10669 16.7539 7.19572 16.4799C7.42241 15.7822 7.96939 15.2352 8.66705 15.0085C8.94106 14.9195 9.34488 14.8964 11.0419 14.8964H13.3806L13.4195 14.8965C13.5588 14.8971 13.8211 14.8983 14.0842 14.8517C14.5904 14.7621 15.0639 14.5403 15.4568 14.2088C15.661 14.0364 15.828 13.8341 15.9167 13.7267L15.9415 13.6968L18.9624 10.0709C19.4946 9.43219 19.6205 9.29161 19.7449 9.18665C20.0535 8.92617 20.4256 8.75189 20.8233 8.68148Z" fill="currentColor"/>
</svg>
