<svg width="20" height="20" viewBox="0 0 20 20" fill="none" xmlns="http://www.w3.org/2000/svg">
<path fill-rule="evenodd" clip-rule="evenodd" d="M9.75945 7.20785H2.9165C2.50229 7.20785 2.1665 6.87206 2.1665 6.45784C2.1665 6.04363 2.50229 5.70784 2.9165 5.70784H9.75986C10.0942 4.39108 11.2874 3.41699 12.7081 3.41699C14.1289 3.41699 15.3221 4.39108 15.6564 5.70784H17.0831C17.4973 5.70784 17.8331 6.04363 17.8331 6.45784C17.8331 6.87206 17.4973 7.20785 17.0831 7.20785H15.6568C15.3231 8.52543 14.1295 9.50033 12.7081 9.50033C11.2868 9.50033 10.0932 8.52543 9.75945 7.20785ZM11.1665 6.45866C11.1665 5.60722 11.8567 4.91699 12.7081 4.91699C13.5596 4.91699 14.2498 5.60722 14.2498 6.45866C14.2498 7.3101 13.5596 8.00033 12.7081 8.00033C11.8567 8.00033 11.1665 7.3101 11.1665 6.45866Z" fill="#171719"/>
<path fill-rule="evenodd" clip-rule="evenodd" d="M4.3428 14.2912H2.9165C2.50229 14.2912 2.1665 13.9554 2.1665 13.5412C2.1665 13.127 2.50229 12.7912 2.9165 12.7912H4.34321C4.67751 11.4744 5.87075 10.5003 7.2915 10.5003C8.71224 10.5003 9.90548 11.4744 10.2398 12.7912H17.0831C17.4973 12.7912 17.8331 13.127 17.8331 13.5412C17.8331 13.9554 17.4973 14.2912 17.0831 14.2912H10.2402C9.90646 15.6088 8.71283 16.5837 7.2915 16.5837C5.87016 16.5837 4.67653 15.6088 4.3428 14.2912ZM5.74983 13.542C5.74983 12.6906 6.44006 12.0003 7.2915 12.0003C8.14293 12.0003 8.83316 12.6906 8.83316 13.542C8.83316 14.3934 8.14293 15.0837 7.2915 15.0837C6.44006 15.0837 5.74983 14.3934 5.74983 13.542Z" fill="#171719"/>
</svg>
