<svg width="20" height="20" viewBox="0 0 20 20" fill="none" xmlns="http://www.w3.org/2000/svg">
<path fill-rule="evenodd" clip-rule="evenodd" d="M1.25 7.83344C1.25 4.94722 3.47499 2.58344 6.33331 2.58344C7.78537 2.58344 9.0811 3.19771 9.99997 4.18238C10.9188 3.19771 12.2146 2.58344 13.6666 2.58344C16.5249 2.58344 18.7499 4.94722 18.7499 7.83344C18.7499 9.20004 18.2553 10.3507 17.4826 11.4189C16.7242 12.4672 15.6692 13.4736 14.5103 14.5497L14.5068 14.553L11.3905 17.4096C11.2464 17.5416 11.1082 17.6683 10.9826 17.7665C10.8447 17.8743 10.6766 17.9851 10.463 18.0504C10.1612 18.1427 9.83873 18.1427 9.53694 18.0504C9.32333 17.9851 9.15525 17.8743 9.01733 17.7665C8.89171 17.6683 8.75352 17.5416 8.60948 17.4096L5.49319 14.553L5.48965 14.5497C4.33075 13.4736 3.27573 12.4672 2.51733 11.4189C1.74463 10.3507 1.25 9.20004 1.25 7.83344ZM6.3333 4.08327C4.35831 4.08327 2.74998 5.71949 2.74998 7.83327C2.74998 8.8 3.08868 9.64932 3.73265 10.5395C4.39058 11.449 5.33495 12.3589 6.50856 13.4487L9.94365 16.5976C9.97551 16.6268 10.0244 16.6268 10.0563 16.5976L13.4914 13.4487C14.665 12.3589 15.6093 11.449 16.2673 10.5395C16.9112 9.64932 17.2499 8.8 17.2499 7.83327C17.2499 5.71949 15.6416 4.08327 13.6666 4.08327C12.3892 4.08327 11.2768 4.761 10.6409 5.80747C10.5049 6.03133 10.2619 6.168 9.99996 6.168C9.73801 6.168 9.49503 6.03133 9.35901 5.80747C8.72314 4.761 7.61074 4.08327 6.3333 4.08327Z" fill="white"/>
</svg>
