<svg width="20" height="20" viewBox="0 0 20 20" fill="none" xmlns="http://www.w3.org/2000/svg">
<path d="M6.33332 2.58337C3.47499 2.58337 1.25 4.94716 1.25 7.83337C1.25 9.19998 1.74463 10.3507 2.51733 11.4188C3.27573 12.4672 4.33075 13.4735 5.48965 14.5496L5.49319 14.5529L8.60949 17.4095C8.75352 17.5416 8.89171 17.6683 9.01734 17.7665C9.15525 17.8743 9.32334 17.985 9.53694 18.0503C9.83873 18.1426 10.1612 18.1426 10.463 18.0503C10.6766 17.985 10.8447 17.8743 10.9826 17.7665C11.1082 17.6683 11.2464 17.5416 11.3904 17.4095L14.5068 14.5529L14.5103 14.5496C15.6692 13.4735 16.7242 12.4672 17.4826 11.4188C18.2553 10.3507 18.7499 9.19998 18.7499 7.83337C18.7499 4.94716 16.525 2.58337 13.6666 2.58337C12.2146 2.58337 10.9188 3.19765 9.99998 4.18232C9.08111 3.19765 7.78538 2.58337 6.33332 2.58337Z" fill="white"/>
</svg>
