<svg width="24" height="24" viewBox="0 0 24 24" fill="none" xmlns="http://www.w3.org/2000/svg">
<path fill-rule="evenodd" clip-rule="evenodd" d="M12.3616 2.27647C12.1248 2.21318 11.8755 2.21318 11.6387 2.27647C11.358 2.3515 11.1252 2.5333 11.0026 2.62905L10.9675 2.65625L4.13433 7.88153C3.74752 8.17676 3.42134 8.42572 3.17859 8.75002C2.96529 9.03498 2.80627 9.35676 2.70948 9.69929C2.59933 10.0891 2.59971 10.4995 2.60015 10.9861L2.60021 17.335C2.6002 17.8648 2.60018 18.316 2.63045 18.6865C2.66224 19.0756 2.73188 19.4542 2.91629 19.8161C3.19432 20.3618 3.63796 20.8055 4.18363 21.0835C4.54556 21.2679 4.92416 21.3375 5.31332 21.3693C5.68373 21.3996 6.13489 21.3996 6.66473 21.3996H11.9899C11.9934 21.3996 11.9969 21.3996 12.0005 21.3996C12.004 21.3996 12.0075 21.3996 12.0111 21.3996H17.3356C17.8654 21.3996 18.3166 21.3996 18.687 21.3693C19.0762 21.3375 19.4548 21.2679 19.8167 21.0835C20.3624 20.8055 20.806 20.3618 21.0841 19.8161C21.2685 19.4542 21.3381 19.0756 21.3699 18.6865C21.4002 18.316 21.4002 17.8649 21.4001 17.335L21.4002 10.9861C21.4006 10.4994 21.401 10.0891 21.2909 9.69929C21.1941 9.35676 21.0351 9.03498 20.8218 8.75002C20.579 8.42572 20.2528 8.17677 19.866 7.88153L13.0328 2.65625L12.9978 2.62905C12.8752 2.5333 12.6424 2.3515 12.3616 2.27647ZM12.9005 19.5994H17.7002C18.5147 19.5994 18.7086 19.5883 18.8401 19.5456C19.175 19.4368 19.4375 19.1742 19.5463 18.8393C19.5891 18.7078 19.6002 18.514 19.6002 17.6994V10.883C19.6002 10.4628 19.5966 10.3673 19.5817 10.2869C19.5446 10.0871 19.4528 9.90143 19.3166 9.75057C19.2618 9.68986 19.1881 9.62903 18.8543 9.37376L12.0002 4.1324L5.14606 9.37376C4.81224 9.62903 4.73855 9.68986 4.68373 9.75057C4.54754 9.90143 4.4558 10.0871 4.4187 10.2869C4.40377 10.3673 4.40021 10.4628 4.40021 10.883V17.6994C4.40021 18.514 4.41132 18.7078 4.45405 18.8393C4.56286 19.1742 4.82541 19.4368 5.16029 19.5456C5.29181 19.5883 5.48565 19.5994 6.30021 19.5994H11.1005V13.9996C11.1005 13.5026 11.5034 13.0996 12.0005 13.0996C12.4975 13.0996 12.9005 13.5026 12.9005 13.9996V19.5994Z" fill="currentColor"/>
</svg>
