<svg width="20" height="20" viewBox="0 0 20 20" fill="none" xmlns="http://www.w3.org/2000/svg">
<path d="M10.8333 13.3333C10.8333 13.7935 10.4602 14.1666 9.99995 14.1666C9.53971 14.1666 9.16662 13.7935 9.16662 13.3333C9.16662 12.873 9.53971 12.4999 9.99995 12.4999C10.4602 12.4999 10.8333 12.873 10.8333 13.3333Z" fill="currentColor"/>
<path d="M10.75 6.66658C10.75 6.25237 10.4143 5.91658 10 5.91658C9.58584 5.91658 9.25005 6.25237 9.25005 6.66658V10.4166C9.25005 10.8308 9.58584 11.1666 10 11.1666C10.4143 11.1666 10.75 10.8308 10.75 10.4166V6.66658Z" fill="currentColor"/>
<path fill-rule="evenodd" clip-rule="evenodd" d="M1.75 10C1.75 5.44365 5.44364 1.75 9.99997 1.75C14.5563 1.75 18.2499 5.44365 18.2499 10C18.2499 14.5563 14.5563 18.25 9.99997 18.25C5.44364 18.25 1.75 14.5563 1.75 10ZM9.99997 3.25C6.27206 3.25 3.25 6.27208 3.25 10C3.25 13.7279 6.27206 16.75 9.99997 16.75C13.7279 16.75 16.7499 13.7279 16.7499 10C16.7499 6.27208 13.7279 3.25 9.99997 3.25Z" fill="currentColor"/>
</svg>
