<svg width="24" height="24" viewBox="0 0 24 24" fill="none" xmlns="http://www.w3.org/2000/svg">
<path d="M11.9976 0.999512C11.2019 0.999512 10.4388 1.31558 9.87624 1.87819C9.31363 2.4408 8.99756 3.20386 8.99756 3.99951V11.9995C8.99756 12.7952 9.31363 13.5582 9.87624 14.1208C10.4388 14.6834 11.2019 14.9995 11.9976 14.9995C12.7932 14.9995 13.5563 14.6834 14.1189 14.1208C14.6815 13.5582 14.9976 12.7952 14.9976 11.9995V3.99951C14.9976 3.20386 14.6815 2.4408 14.1189 1.87819C13.5563 1.31558 12.7932 0.999512 11.9976 0.999512Z" fill="currentColor" stroke="currentColor" stroke-width="2" stroke-linecap="round" stroke-linejoin="round"/>
<path d="M19.0015 10.0015V12.0015C19.0015 13.858 18.264 15.6385 16.9512 16.9512C15.6385 18.264 13.858 19.0015 12.0015 19.0015C10.1449 19.0015 8.36447 18.264 7.05172 16.9512C5.73896 15.6385 5.00146 13.858 5.00146 12.0015V10.0015" stroke="currentColor" stroke-width="2" stroke-linecap="round" stroke-linejoin="round"/>
<path d="M11.9995 18.998V22.998" stroke="currentColor" stroke-width="2" stroke-linecap="round" stroke-linejoin="round"/>
<path d="M7.99805 22.9995H15.998" stroke="currentColor" stroke-width="2" stroke-linecap="round" stroke-linejoin="round"/>
</svg>
