<svg width="24" height="24" viewBox="0 0 24 24" fill="none" xmlns="http://www.w3.org/2000/svg">
<path d="M7.85034 13.4996C7.85034 13.0026 8.25328 12.5996 8.75034 12.5996H12.7503C13.2474 12.5996 13.6503 13.0026 13.6503 13.4996C13.6503 13.9967 13.2474 14.3996 12.7503 14.3996H8.75034C8.25328 14.3996 7.85034 13.9967 7.85034 13.4996Z" fill="#171719"/>
<path d="M7.85034 17.0001C7.85034 16.503 8.25328 16.1001 8.75034 16.1001H12.7503C13.2474 16.1001 13.6503 16.503 13.6503 17.0001C13.6503 17.4972 13.2474 17.9001 12.7503 17.9001H8.75034C8.25328 17.9001 7.85034 17.4972 7.85034 17.0001Z" fill="#171719"/>
<path fill-rule="evenodd" clip-rule="evenodd" d="M13.2793 2.15275C13.0564 2.09922 12.8293 2.09974 12.6375 2.10018L12.5873 2.10026H7.91468C7.38481 2.10024 6.93364 2.10023 6.56321 2.13049C6.17405 2.16229 5.79545 2.23192 5.43352 2.41634C4.88785 2.69437 4.44421 3.13801 4.16618 3.68368C3.98177 4.04562 3.91213 4.42421 3.88034 4.81337C3.85007 5.18378 3.85009 5.63494 3.8501 6.16477V17.8357C3.85009 18.3655 3.85007 18.8167 3.88034 19.1871C3.91213 19.5763 3.98177 19.9549 4.16618 20.3168C4.44421 20.8625 4.88785 21.3061 5.43352 21.5842C5.79545 21.7686 6.17405 21.8382 6.56321 21.87C6.93362 21.9003 7.38478 21.9003 7.91462 21.9003H16.0855C16.6153 21.9003 17.0665 21.9003 17.4369 21.87C17.8261 21.8382 18.2047 21.7686 18.5666 21.5842C19.1123 21.3061 19.5559 20.8625 19.834 20.3168C20.0184 19.9549 20.088 19.5763 20.1198 19.1871C20.1501 18.8167 20.1501 18.3656 20.15 17.8357V9.66255L20.1501 9.61237C20.1506 9.4205 20.1511 9.19343 20.0975 8.97044C20.051 8.77656 19.9742 8.59121 19.87 8.42121C19.7502 8.22567 19.5893 8.06549 19.4533 7.93013L19.4177 7.8947L14.355 2.83241L14.3196 2.79688C14.1842 2.66091 14.024 2.50002 13.8285 2.38021C13.6585 2.27605 13.4732 2.19929 13.2793 2.15275ZM12.6004 3.90049C12.5961 3.90049 12.5917 3.90049 12.5873 3.90049H7.95007C7.37516 3.90049 6.99812 3.90119 6.70976 3.92475C6.43192 3.94745 6.31657 3.98681 6.25068 4.02039C6.0437 4.12585 5.87543 4.29412 5.76997 4.5011C5.73639 4.56699 5.69703 4.68234 5.67433 4.96018C5.65077 5.24854 5.65007 5.62559 5.65007 6.20049V17.8005C5.65007 18.3754 5.65077 18.7524 5.67433 19.0408C5.69703 19.3186 5.73639 19.434 5.76997 19.4999C5.87543 19.7069 6.0437 19.8751 6.25068 19.9806C6.31657 20.0142 6.43192 20.0535 6.70976 20.0762C6.99812 20.0998 7.37516 20.1005 7.95007 20.1005H16.05C16.6249 20.1005 17.002 20.0998 17.2903 20.0762C17.5682 20.0535 17.6835 20.0142 17.7494 19.9806C17.9564 19.8751 18.1247 19.7069 18.2301 19.4999C18.2637 19.434 18.3031 19.3186 18.3258 19.0408C18.3493 18.7524 18.35 18.3754 18.35 17.8005V9.9002L15.0707 9.9002C14.8163 9.90023 14.5743 9.90025 14.3703 9.88359C14.1479 9.86542 13.8928 9.82303 13.6378 9.69311C13.2803 9.51096 12.9897 9.22029 12.8075 8.86278C12.6776 8.60781 12.6352 8.3527 12.617 8.13029C12.6004 7.92634 12.6004 7.68432 12.6004 7.43002L12.6004 3.90049ZM17.0773 8.1002L14.4004 5.42358V8.0002C14.4004 8.05542 14.4452 8.1002 14.5004 8.1002H17.0773Z" fill="#171719"/>
</svg>
