<svg width="24" height="24" viewBox="0 0 24 24" fill="none" xmlns="http://www.w3.org/2000/svg">
<path d="M5.60011 15.1435C5.17031 15.133 4.81387 15.1026 4.49072 15.0161C3.14486 14.6554 2.09362 13.6042 1.733 12.2583C1.59945 11.7599 1.59971 11.1823 1.60007 10.3785V10.1194C1.59971 9.31557 1.59945 8.73798 1.733 8.23955C2.09362 6.89369 3.14486 5.84246 4.49072 5.48184C4.98914 5.34828 5.56674 5.34854 6.37058 5.34891L9.84974 5.34895L16.6736 3.00324C16.8291 2.94972 16.9975 2.89181 17.145 2.85552C17.3049 2.81617 17.5527 2.77125 17.8322 2.83949C18.1813 2.92473 18.4842 3.14095 18.6783 3.44338C18.8337 3.6855 18.8718 3.93447 18.8866 4.09849C18.9002 4.24977 18.9002 4.42777 18.9001 4.59227V15.9056C18.9002 16.0701 18.9002 16.2481 18.8866 16.3994C18.8718 16.5634 18.8337 16.8124 18.6783 17.0545C18.4842 17.3569 18.1813 17.5732 17.8322 17.6584C17.5527 17.7266 17.3049 17.6817 17.145 17.6424C16.9975 17.6061 16.8291 17.5482 16.6736 17.4946L10.9001 15.51V18.9989C10.9001 20.4625 9.71367 21.6489 8.25011 21.6489C6.78656 21.6489 5.60011 20.4625 5.60011 18.9989V15.1435Z" fill="currentColor"/>
<path d="M22.4001 7.49888C22.4001 7.00182 21.9971 6.59888 21.5001 6.59888C21.003 6.59888 20.6001 7.00182 20.6001 7.49888V12.9989C20.6001 13.4959 21.003 13.8989 21.5001 13.8989C21.9971 13.8989 22.4001 13.4959 22.4001 12.9989V7.49888Z" fill="currentColor"/>
</svg>
