<svg width="20" height="20" viewBox="0 0 20 20" fill="none" xmlns="http://www.w3.org/2000/svg">
<path fill-rule="evenodd" clip-rule="evenodd" d="M10.0002 2.16748C7.74506 2.16748 5.9169 3.99565 5.9169 6.25081C5.9169 8.50598 7.74506 10.3341 10.0002 10.3341C12.2554 10.3341 14.0835 8.50598 14.0835 6.25081C14.0835 3.99565 12.2554 2.16748 10.0002 2.16748ZM7.41689 6.25081C7.41689 4.82408 8.57349 3.66748 10.0002 3.66748C11.427 3.66748 12.5835 4.82408 12.5835 6.25081C12.5835 7.67755 11.427 8.83415 10.0002 8.83415C8.57349 8.83415 7.41689 7.67755 7.41689 6.25081Z" fill="currentColor"/>
<path fill-rule="evenodd" clip-rule="evenodd" d="M10.0001 11.3328C8.07353 11.3328 6.27567 11.71 4.93044 12.4346C3.58617 13.1587 2.5835 14.3047 2.5835 15.8328L2.5835 16.1059C2.58347 16.2615 2.58345 16.4198 2.59451 16.5552C2.60681 16.7058 2.63646 16.8927 2.73338 17.0829C2.86521 17.3416 3.07558 17.552 3.33431 17.6838C3.52452 17.7807 3.7114 17.8103 3.862 17.8226C3.99737 17.8337 4.15573 17.8336 4.31128 17.8336L15.6892 17.8329C15.8447 17.8329 16.0031 17.833 16.1384 17.8219C16.289 17.8096 16.4759 17.7799 16.6661 17.683C16.9248 17.5512 17.1351 17.3408 17.2669 17.0821C17.3638 16.8919 17.3935 16.7051 17.4058 16.5545C17.4168 16.4191 17.4168 16.2608 17.4168 16.1052L17.4168 15.8328C17.4168 14.3047 16.4141 13.1587 15.0699 12.4346C13.7246 11.71 11.9268 11.3328 10.0001 11.3328ZM4.0835 15.8328C4.0835 15.0598 4.57321 14.3308 5.64179 13.7552C6.70941 13.1801 8.24487 12.8328 10.0001 12.8328C11.7554 12.8328 13.2909 13.1801 14.3585 13.7552C15.4271 14.3308 15.9168 15.0598 15.9168 15.8328L15.9153 16.3314L4.08501 16.3321L4.0835 15.8328Z" fill="currentColor"/>
</svg>
