<svg width="24" height="24" viewBox="0 0 24 24" fill="none" xmlns="http://www.w3.org/2000/svg">
<path d="M9.13635 5.36359C9.48781 5.71506 9.48781 6.28491 9.13633 6.63638C8.89687 6.87584 8.66164 7.10932 8.43159 7.33766C7.3134 8.44752 6.31724 9.43627 5.54823 10.4037C5.11423 10.9497 4.77994 11.4567 4.5472 11.9385C5.2482 11.2644 6.20068 10.8501 7.24994 10.8501C9.40384 10.8501 11.1499 12.5962 11.1499 14.7501C11.1499 16.904 9.40384 18.6501 7.24994 18.6501L7.20592 18.6498C5.70291 18.64 4.45816 18.1251 3.59607 17.1631C2.7384 16.2061 2.34998 14.908 2.34998 13.5C2.34998 11.9436 3.12782 10.556 4.13915 9.28371C4.98055 8.22516 6.06976 7.14472 7.18833 6.03517C7.41281 5.8125 7.63848 5.58865 7.86356 5.36357C8.21503 5.0121 8.78488 5.01211 9.13635 5.36359Z" fill="#171719"/>
<path d="M19.6363 5.36359C19.9878 5.71506 19.9878 6.28491 19.6363 6.63638C19.397 6.87562 19.162 7.10889 18.9322 7.33702C17.814 8.44689 16.8172 9.43627 16.0482 10.4037C15.6142 10.9497 15.2799 11.4567 15.0472 11.9385C15.7482 11.2644 16.7006 10.8501 17.7499 10.8501C19.9038 10.8501 21.6499 12.5962 21.6499 14.7501C21.6499 16.904 19.9038 18.6501 17.7499 18.6501L17.7059 18.6498C16.2029 18.64 14.9581 18.1251 14.096 17.1631C13.2384 16.2061 12.8499 14.908 12.8499 13.5C12.8499 11.9436 13.6278 10.556 14.6391 9.28371C15.4805 8.22517 16.5697 7.14473 17.6883 6.03518C17.9128 5.81251 18.1384 5.58865 18.3635 5.36357C18.715 5.0121 19.2848 5.01211 19.6363 5.36359Z" fill="#171719"/>
</svg>
