<svg width="20" height="20" viewBox="0 0 20 20" fill="none" xmlns="http://www.w3.org/2000/svg">
<path d="M7.87977 5.64292L6.78108 4.54423C9.20991 3.10797 12.3926 3.43439 14.4796 5.52143C16.953 7.99475 16.953 12.0048 14.4796 14.4781C12.0063 16.9514 7.99628 16.9514 5.52296 14.4781C4.28597 13.2411 3.66778 11.6213 3.66797 9.99904C3.66802 9.58483 3.33227 9.249 2.91805 9.24896C2.50384 9.24891 2.16802 9.58466 2.16797 9.99887C2.16774 12.0027 2.93266 14.0091 4.4623 15.5388C7.52141 18.5979 12.4812 18.5979 15.5403 15.5388C18.5994 12.4797 18.5994 7.51987 15.5403 4.46077C12.8637 1.78413 8.73347 1.44999 5.69288 3.45603L4.63886 2.40202C4.42437 2.18752 4.10178 2.12335 3.82152 2.23944C3.54127 2.35552 3.35853 2.629 3.35853 2.93235L3.35853 6.17325C3.35853 6.37216 3.43755 6.56293 3.5782 6.70358C3.71886 6.84423 3.90962 6.92325 4.10853 6.92325H7.34944C7.65279 6.92325 7.92626 6.74052 8.04235 6.46026C8.15843 6.18001 8.09427 5.85742 7.87977 5.64292Z" fill="currentColor"/>
</svg>
