<svg width="24" height="24" viewBox="0 0 24 24" fill="none" xmlns="http://www.w3.org/2000/svg">
<path fill-rule="evenodd" clip-rule="evenodd" d="M3.94938 14.5007C3.53441 15.2684 3.194 15.8981 2.97613 16.4033C2.7664 16.8895 2.57748 17.4554 2.69973 18.0237C2.86143 18.7754 3.37349 19.4041 4.07691 19.7146C4.60876 19.9494 5.20117 19.8789 5.71978 19.7719C6.25854 19.6608 6.94415 19.4549 7.77992 19.2039L11.9999 17.9366L16.2198 19.2039C17.0556 19.4549 17.7412 19.6608 18.28 19.7719C18.7986 19.8789 19.391 19.9494 19.9228 19.7146C20.6262 19.4041 21.1383 18.7754 21.3 18.0237C21.4223 17.4554 21.2333 16.8895 21.0236 16.4032C20.8057 15.8981 20.4653 15.2684 20.0504 14.5008L14.1802 3.64096C13.9675 3.24753 13.7792 2.89913 13.6037 2.63524C13.4277 2.37062 13.1792 2.05367 12.7921 1.87608C12.2891 1.64536 11.7106 1.64536 11.2076 1.87608C10.8205 2.05367 10.572 2.37062 10.396 2.63524C10.2205 2.89913 10.0322 3.24753 9.81955 3.64096L3.94938 14.5007ZM5.21858 18.0936C4.7061 18.2475 4.26374 17.7044 4.51818 17.2337L11.9118 3.55547C11.9251 3.53096 11.9378 3.52128 11.9475 3.51576C11.9599 3.50869 11.978 3.50303 11.9998 3.50303C12.0217 3.50303 12.0397 3.50869 12.0521 3.51576C12.0618 3.52128 12.0745 3.53096 12.0878 3.55547L19.4814 17.2337C19.7359 17.7044 19.2935 18.2475 18.781 18.0936L12.8999 16.3274L12.8999 11C12.8999 10.503 12.4969 10.1 11.9999 10.1C11.5028 10.1 11.0999 10.503 11.0999 11L11.0999 16.3274L5.21858 18.0936Z" fill="white"/>
</svg>
