<svg width="20" height="20" viewBox="0 0 20 20" fill="none" xmlns="http://www.w3.org/2000/svg">
<path fill-rule="evenodd" clip-rule="evenodd" d="M12.9755 10.916H15.7751C15.987 10.916 16.1887 10.916 16.3587 10.9299C16.544 10.945 16.7566 10.9803 16.9691 11.0886C17.267 11.2404 17.5092 11.4826 17.661 11.7805C17.7693 11.993 17.8046 12.2056 17.8198 12.3909C17.8337 12.5609 17.8336 12.7626 17.8336 12.9745V15.7742C17.8336 15.9861 17.8337 16.1878 17.8198 16.3578C17.8046 16.5431 17.7693 16.7557 17.661 16.9682C17.5092 17.2661 17.267 17.5083 16.9691 17.6601C16.7566 17.7684 16.544 17.8037 16.3587 17.8188C16.1887 17.8327 15.987 17.8327 15.7751 17.8327H12.9755C12.7636 17.8327 12.5619 17.8327 12.3919 17.8188C12.2066 17.8037 11.994 17.7684 11.7815 17.6601C11.4836 17.5083 11.2413 17.2661 11.0895 16.9682C10.9813 16.7557 10.946 16.5431 10.9308 16.3578C10.9169 16.1878 10.9169 15.9861 10.917 15.7742V12.9746C10.9169 12.7626 10.9169 12.5609 10.9308 12.3909C10.946 12.2056 10.9813 11.993 11.0895 11.7805C11.2413 11.4826 11.4836 11.2404 11.7815 11.0886C11.994 10.9803 12.2066 10.945 12.3919 10.9299C12.5619 10.916 12.7636 10.916 12.9755 10.916ZM12.5003 12.4167C12.4543 12.4167 12.417 12.4541 12.417 12.5001V16.2501C12.417 16.2961 12.4543 16.3334 12.5003 16.3334H16.2503C16.2964 16.3334 16.3337 16.2961 16.3337 16.2501V12.5001C16.3337 12.4541 16.2964 12.4167 16.2503 12.4167H12.5003Z" fill="currentColor"/>
<path fill-rule="evenodd" clip-rule="evenodd" d="M4.22552 10.916H7.02511C7.23705 10.916 7.43875 10.916 7.60872 10.9299C7.79406 10.945 8.00665 10.9803 8.21913 11.0886C8.51705 11.2404 8.75927 11.4826 8.91107 11.7805C9.01933 11.993 9.05465 12.2056 9.0698 12.3909C9.08368 12.5609 9.08366 12.7626 9.08364 12.9745V15.7742C9.08366 15.9861 9.08368 16.1878 9.0698 16.3578C9.05465 16.5431 9.01933 16.7557 8.91107 16.9682C8.75927 17.2661 8.51705 17.5083 8.21913 17.6601C8.00665 17.7684 7.79406 17.8037 7.60872 17.8188C7.43876 17.8327 7.23706 17.8327 7.02513 17.8327H4.22552C4.0136 17.8327 3.81188 17.8327 3.64192 17.8188C3.45658 17.8037 3.24399 17.7684 3.03151 17.6601C2.73359 17.5083 2.49137 17.2661 2.33957 16.9682C2.2313 16.7557 2.19598 16.5431 2.18084 16.3578C2.16695 16.1878 2.16697 15.9861 2.16699 15.7742V12.9746C2.16697 12.7626 2.16695 12.5609 2.18084 12.3909C2.19598 12.2056 2.2313 11.993 2.33957 11.7805C2.49137 11.4826 2.73359 11.2404 3.03151 11.0886C3.24399 10.9803 3.45658 10.945 3.64192 10.9299C3.81189 10.916 4.01359 10.916 4.22552 10.916ZM3.75037 12.4167C3.70435 12.4167 3.66704 12.4541 3.66704 12.5001V16.2501C3.66704 16.2961 3.70435 16.3334 3.75037 16.3334H7.50036C7.54638 16.3334 7.58369 16.2961 7.58369 16.2501V12.5001C7.58369 12.4541 7.54638 12.4167 7.50036 12.4167H3.75037Z" fill="currentColor"/>
<path fill-rule="evenodd" clip-rule="evenodd" d="M12.9755 2.16602H15.7751C15.987 2.166 16.1887 2.16598 16.3587 2.17986C16.544 2.19501 16.7566 2.23033 16.9691 2.33859C17.267 2.49039 17.5092 2.73261 17.661 3.03053C17.7693 3.24301 17.8046 3.45561 17.8198 3.64095C17.8337 3.81091 17.8336 4.01261 17.8336 4.22453V7.02415C17.8336 7.23608 17.8337 7.4378 17.8198 7.60776C17.8046 7.7931 17.7693 8.00569 17.661 8.21817C17.5092 8.51609 17.267 8.75831 16.9691 8.91011C16.7566 9.01838 16.544 9.0537 16.3587 9.06884C16.1887 9.08273 15.987 9.08271 15.7751 9.08269H12.9755C12.7636 9.08271 12.5619 9.08273 12.3919 9.06884C12.2066 9.0537 11.994 9.01838 11.7815 8.91011C11.4836 8.75831 11.2413 8.51609 11.0895 8.21817C10.9813 8.00569 10.946 7.7931 10.9308 7.60776C10.9169 7.43779 10.9169 7.23609 10.917 7.02415V4.22455C10.9169 4.01262 10.9169 3.81091 10.9308 3.64095C10.946 3.45561 10.9813 3.24301 11.0895 3.03053C11.2413 2.73261 11.4836 2.49039 11.7815 2.33859C11.994 2.23033 12.2066 2.19501 12.3919 2.17986C12.5619 2.16598 12.7636 2.166 12.9755 2.16602ZM12.5003 3.66674C12.4543 3.66674 12.417 3.70405 12.417 3.75008V7.50008C12.417 7.5461 12.4543 7.58341 12.5003 7.58341H16.2503C16.2964 7.58341 16.3337 7.5461 16.3337 7.50008V3.75008C16.3337 3.70405 16.2964 3.66674 16.2503 3.66674H12.5003Z" fill="currentColor"/>
<path fill-rule="evenodd" clip-rule="evenodd" d="M4.22552 2.16602H7.02511C7.23705 2.166 7.43875 2.16598 7.60872 2.17986C7.79406 2.19501 8.00665 2.23033 8.21913 2.33859C8.51705 2.49039 8.75927 2.73261 8.91107 3.03053C9.01933 3.24301 9.05465 3.45561 9.0698 3.64095C9.08368 3.81091 9.08366 4.01261 9.08364 4.22453V7.02415C9.08366 7.23608 9.08368 7.4378 9.0698 7.60776C9.05465 7.7931 9.01933 8.00569 8.91107 8.21817C8.75927 8.51609 8.51705 8.75831 8.21913 8.91011C8.00665 9.01838 7.79406 9.0537 7.60872 9.06884C7.43876 9.08273 7.23706 9.08271 7.02513 9.08269H4.22552C4.0136 9.08271 3.81188 9.08273 3.64192 9.06884C3.45658 9.0537 3.24399 9.01838 3.03151 8.91011C2.73359 8.75831 2.49137 8.51609 2.33957 8.21817C2.2313 8.00569 2.19598 7.7931 2.18084 7.60776C2.16695 7.43779 2.16697 7.23609 2.16699 7.02415V4.22455C2.16697 4.01262 2.16695 3.81091 2.18084 3.64095C2.19598 3.45561 2.2313 3.24301 2.33957 3.03053C2.49137 2.73261 2.73359 2.49039 3.03151 2.33859C3.24399 2.23033 3.45658 2.19501 3.64192 2.17986C3.81189 2.16598 4.01359 2.166 4.22552 2.16602ZM3.75037 3.66674C3.70435 3.66674 3.66704 3.70405 3.66704 3.75008V7.50008C3.66704 7.5461 3.70435 7.58341 3.75037 7.58341H7.50036C7.54638 7.58341 7.58369 7.5461 7.58369 7.50008V3.75008C7.58369 3.70405 7.54638 3.66674 7.50036 3.66674H3.75037Z" fill="currentColor"/>
</svg>
