<svg width="20" height="20" viewBox="0 0 20 20" fill="none" xmlns="http://www.w3.org/2000/svg">
<path fill-rule="evenodd" clip-rule="evenodd" d="M9.28182 1.17362C9.73297 0.94408 10.2667 0.94408 10.7178 1.17362C11.0799 1.35783 11.2877 1.6996 11.4264 1.96418C11.5727 2.24353 11.7283 2.6175 11.91 3.05439L12.9144 5.46931C12.9746 5.61419 13.0072 5.6917 13.0345 5.74735C13.0427 5.76412 13.0484 5.77448 13.0517 5.78016C13.0567 5.78485 13.0623 5.7889 13.0683 5.79223C13.0747 5.79358 13.0863 5.79577 13.1048 5.79841C13.1662 5.80717 13.2499 5.81422 13.4064 5.82676L16.0134 6.03576C16.4851 6.07356 16.8888 6.10592 17.1997 6.15879C17.4942 6.20888 17.8835 6.30097 18.1706 6.58838C18.5283 6.94651 18.6932 7.45409 18.6143 7.95408C18.551 8.35534 18.2902 8.65866 18.0814 8.87226C17.8609 9.09779 17.5533 9.36128 17.1939 9.6691L15.2076 11.3706C15.0885 11.4727 15.0248 11.5276 14.9803 11.5708C14.9669 11.5838 14.9588 11.5924 14.9544 11.5972C14.9515 11.6035 14.9494 11.61 14.9481 11.6168C14.9488 11.6233 14.9503 11.635 14.9535 11.6534C14.9641 11.7145 14.9833 11.7963 15.0197 11.949L15.6266 14.493C15.7364 14.9533 15.8304 15.3473 15.8762 15.6593C15.9195 15.9548 15.9522 16.3535 15.7676 16.7153C15.5375 17.1662 15.1058 17.4799 14.6059 17.5594C14.2047 17.6232 13.8356 17.4689 13.568 17.3363C13.2854 17.1963 12.9398 16.9852 12.536 16.7386L10.3039 15.3752C10.17 15.2934 10.098 15.2499 10.0433 15.2209C10.0267 15.2122 10.0161 15.2071 10.0101 15.2045C10.0033 15.2036 9.99637 15.2036 9.98955 15.2045C9.98357 15.2071 9.97289 15.2122 9.95638 15.2209C9.90159 15.2499 9.82966 15.2934 9.69575 15.3752L7.46375 16.7385C7.05995 16.9852 6.7143 17.1963 6.43168 17.3363C6.16401 17.4689 5.79494 17.6232 5.39377 17.5594C4.89386 17.4799 4.46209 17.1662 4.23203 16.7153C4.0474 16.3535 4.08011 15.9548 4.12347 15.6593C4.16926 15.3472 4.26326 14.9533 4.37307 14.493L4.97991 11.949C5.01632 11.7963 5.03551 11.7145 5.04614 11.6534C5.04934 11.635 5.05085 11.6233 5.05154 11.6168C5.05024 11.61 5.0481 11.6035 5.04519 11.5972C5.0408 11.5924 5.0327 11.5838 5.01929 11.5708C4.9748 11.5276 4.91115 11.4727 4.79199 11.3706L2.80569 9.6691C2.44635 9.36131 2.13869 9.09778 1.91824 8.87226C1.70945 8.65866 1.44865 8.35534 1.38533 7.95408C1.30644 7.45409 1.47136 6.94651 1.82908 6.58838C2.11615 6.30097 2.50543 6.20888 2.7999 6.15879C3.11082 6.10592 3.51456 6.07356 3.98623 6.03577L6.59328 5.82676C6.74969 5.81422 6.83348 5.80717 6.89484 5.79841C6.91333 5.79577 6.92494 5.79358 6.93134 5.79223C6.93736 5.7889 6.94294 5.78485 6.94796 5.78016C6.95123 5.77448 6.9569 5.76412 6.96512 5.74735C6.99241 5.6917 7.02501 5.61419 7.08527 5.46931L8.08966 3.05445C8.27135 2.61756 8.4269 2.24353 8.57327 1.96418C8.71189 1.6996 8.91978 1.35783 9.28182 1.17362ZM9.95154 2.5151C9.9452 2.5191 9.934 2.5273 9.92285 2.55409L8.35294 6.32864C8.12493 6.87684 7.60938 7.25141 7.01755 7.29886L2.94263 7.62554C2.9137 7.62786 2.90244 7.63599 2.89667 7.64078C2.88773 7.64821 2.87676 7.66216 2.87003 7.68286C2.86331 7.70356 2.86398 7.72129 2.86685 7.73256C2.8687 7.73982 2.87303 7.75302 2.89507 7.7719L5.99973 10.4314C6.45065 10.8176 6.64757 11.4237 6.50981 12.0012L5.56128 15.9777C5.55455 16.0059 5.5588 16.0191 5.56157 16.0261C5.56587 16.0369 5.57575 16.0516 5.59336 16.0644C5.61097 16.0772 5.62804 16.0821 5.63965 16.0828C5.64713 16.0833 5.66101 16.0833 5.68578 16.0681L9.17448 13.9372C9.68117 13.6277 10.3184 13.6277 10.8251 13.9372L14.3138 16.0681C14.3386 16.0833 14.3525 16.0833 14.3599 16.0828C14.3715 16.0821 14.3886 16.0772 14.4062 16.0644C14.4238 16.0516 14.4337 16.0369 14.438 16.0261C14.4408 16.0191 14.445 16.0059 14.4383 15.9777L13.4898 12.0012C13.352 11.4237 13.5489 10.8176 13.9999 10.4314L17.1045 7.7719C17.1266 7.75302 17.1309 7.73982 17.1327 7.73256C17.1356 7.72129 17.1363 7.70355 17.1296 7.68286C17.1228 7.66216 17.1119 7.64821 17.1029 7.64078C17.0971 7.63599 17.0859 7.62786 17.057 7.62554L12.982 7.29886C12.3902 7.25141 11.8747 6.87684 11.6466 6.32864L10.0767 2.5541C10.0656 2.5273 10.0544 2.5191 10.048 2.5151C10.0382 2.50889 10.0216 2.50276 9.99979 2.50276C9.97803 2.50276 9.96137 2.50889 9.95154 2.5151Z" fill="#171719"/>
</svg>
