<svg width="20" height="20" viewBox="0 0 20 20" fill="none" xmlns="http://www.w3.org/2000/svg">
<path fill-rule="evenodd" clip-rule="evenodd" d="M10.0002 2.62842C5.66305 2.62842 2.14307 5.3627 2.14307 8.72556C2.14307 10.8234 3.50235 12.6541 5.57662 13.7698L4.70449 16.9677C4.68803 17.0313 4.69142 17.0984 4.71419 17.1601C4.73697 17.2217 4.77804 17.2749 4.8319 17.3125C4.88577 17.3501 4.94985 17.3704 5.01555 17.3705C5.08125 17.3707 5.14543 17.3508 5.19948 17.3134L9.01804 14.7756C9.34018 14.7756 9.67018 14.8306 10.0002 14.8306C14.3373 14.8306 17.8573 12.0963 17.8573 8.72556C17.8573 5.35485 14.3373 2.62842 10.0002 2.62842Z" fill="black"/>
</svg>
