<svg width="20" height="20" viewBox="0 0 20 20" fill="none" xmlns="http://www.w3.org/2000/svg">
<path fill-rule="evenodd" clip-rule="evenodd" d="M10.0022 1.95801C9.19272 1.95801 8.46321 2.44655 8.15499 3.19511L5.74773 9.04134L3.14825 9.04134C3.04805 9.0413 2.9328 9.04127 2.83193 9.04951C2.71607 9.05898 2.55493 9.08294 2.38702 9.1685C2.1675 9.28035 1.98902 9.45883 1.87717 9.67835C1.79161 9.84627 1.76764 10.0074 1.75818 10.1233C1.74993 10.2241 1.74997 10.3394 1.75 10.4396V16.8514C1.74997 16.9516 1.74993 17.0669 1.75818 17.1677C1.76764 17.2836 1.79161 17.4447 1.87717 17.6127C1.98902 17.8322 2.1675 18.0107 2.38702 18.1225C2.55493 18.2081 2.71607 18.232 2.83193 18.2415C2.93278 18.2497 3.04801 18.2497 3.14819 18.2497L14.02 18.2497C14.3983 18.2497 14.723 18.2497 14.9926 18.2293C15.2779 18.2078 15.5552 18.1606 15.8281 18.0383C16.2438 17.852 16.5984 17.5519 16.851 17.1727C17.0167 16.9239 17.1091 16.6582 17.1776 16.3804C17.2423 16.1179 17.2961 15.7976 17.3586 15.4247L18.0116 11.5333C18.0968 11.0258 18.1686 10.5979 18.1967 10.2459C18.226 9.8796 18.2165 9.5161 18.0846 9.15997C17.8881 8.62979 17.512 8.18527 17.0216 7.90378C16.6922 7.7147 16.3353 7.64518 15.9692 7.61346C15.6174 7.58298 15.1835 7.58299 14.669 7.58301L12 7.58301V3.95574C12 2.85242 11.1056 1.95801 10.0022 1.95801ZM9.542 3.76631C9.6188 3.57981 9.80055 3.45809 10.0022 3.45809C10.2771 3.45809 10.5 3.68093 10.5 3.95582V8.33309C10.5 8.7473 10.8358 9.08309 11.25 9.08309H15.0306C15.3995 9.08309 15.6441 9.08338 15.8318 9.09427C16.0158 9.10496 16.0919 9.12383 16.1306 9.13785C16.437 9.2488 16.6614 9.51407 16.7201 9.8346C16.7276 9.8751 16.7336 9.95326 16.7137 10.1365C16.6934 10.3233 16.6532 10.5646 16.5921 10.9284L15.837 15.4284C15.7407 16.0029 15.7109 16.1362 15.6662 16.2295C15.5532 16.4651 15.3449 16.6414 15.0938 16.7138C14.9944 16.7425 14.858 16.7498 14.2755 16.7498H6.99999V9.93979L9.542 3.76631ZM5.5 10.5414H3.25V16.7498H5.5V10.5414Z" fill="currentColor"/>
</svg>
