<svg width="20" height="20" viewBox="0 0 20 20" fill="none" xmlns="http://www.w3.org/2000/svg">
<path fill-rule="evenodd" clip-rule="evenodd" d="M3.41633 2.08319C3.41633 1.66898 3.75212 1.33319 4.16633 1.33319C4.58054 1.33319 4.91633 1.66898 4.91633 2.08319C4.91633 2.82289 5.04929 3.07737 5.15239 3.18046C5.25549 3.28356 5.50996 3.41652 6.24966 3.41652C6.66387 3.41652 6.99965 3.75231 6.99965 4.16652C6.99965 4.58074 6.66387 4.91652 6.24966 4.91652C5.50996 4.91652 5.25549 5.04948 5.15239 5.15258C5.04929 5.25568 4.91633 5.51016 4.91633 6.24986C4.91633 6.66407 4.58054 6.99986 4.16633 6.99986C3.75212 6.99986 3.41633 6.66407 3.41633 6.24986C3.41633 5.51016 3.28337 5.25568 3.18027 5.15258C3.07718 5.04948 2.8227 4.91652 2.08301 4.91652C1.66879 4.91652 1.33301 4.58074 1.33301 4.16652C1.33301 3.75231 1.66879 3.41652 2.08301 3.41652C2.8227 3.41652 3.07718 3.28356 3.18027 3.18046C3.28337 3.07737 3.41633 2.82289 3.41633 2.08319ZM14.5832 2.99998C14.1689 2.99998 13.8332 3.33577 13.8332 3.74998C13.8332 4.33343 13.7262 4.48374 13.6883 4.52173C13.6503 4.55973 13.4999 4.66665 12.9165 4.66665C12.5023 4.66665 12.1665 5.00243 12.1665 5.41665C12.1665 5.83086 12.5023 6.16665 12.9165 6.16665C13.4999 6.16665 13.6503 6.27356 13.6883 6.31156C13.7262 6.34956 13.8332 6.49986 13.8332 7.08331C13.8332 7.49753 14.1689 7.83331 14.5832 7.83331C14.9974 7.83331 15.3332 7.49753 15.3332 7.08331C15.3332 6.49986 15.4401 6.34956 15.4781 6.31156C15.5161 6.27356 15.6664 6.16665 16.2498 6.16665C16.664 6.16665 16.9998 5.83086 16.9998 5.41665C16.9998 5.00243 16.664 4.66665 16.2498 4.66665C15.6664 4.66665 15.5161 4.55973 15.4781 4.52173C15.4401 4.48374 15.3332 4.33343 15.3332 3.74998C15.3332 3.33577 14.9974 2.99998 14.5832 2.99998ZM5.41653 12.1666C5.00232 12.1666 4.66653 12.5024 4.66653 12.9166C4.66653 13.5001 4.55961 13.6504 4.52162 13.6884C4.48362 13.7264 4.33332 13.8333 3.74987 13.8333C3.33566 13.8333 2.99987 14.1691 2.99987 14.5833C2.99987 14.9975 3.33566 15.3333 3.74987 15.3333C4.33332 15.3333 4.48362 15.4402 4.52162 15.4782C4.55961 15.5162 4.66653 15.6665 4.66653 16.25C4.66653 16.6642 5.00232 17 5.41653 17C5.83074 17 6.16653 16.6642 6.16653 16.25C6.16653 15.6665 6.27344 15.5162 6.31144 15.4782C6.34943 15.4402 6.49974 15.3333 7.08319 15.3333C7.4974 15.3333 7.83319 14.9975 7.83319 14.5833C7.83319 14.1691 7.4974 13.8333 7.08319 13.8333C6.49974 13.8333 6.34943 13.7264 6.31144 13.6884C6.27344 13.6504 6.16653 13.5001 6.16653 12.9166C6.16653 12.5024 5.83074 12.1666 5.41653 12.1666Z" fill="#1F2937"/>
<path fill-rule="evenodd" clip-rule="evenodd" d="M9.03603 6.42625C8.59298 6.20667 8.07279 6.20669 7.62976 6.42629C7.39175 6.54426 7.19126 6.74607 7.01785 6.92063L6.92045 7.01804C6.74593 7.19145 6.54417 7.39194 6.42622 7.62994C6.20668 8.07295 6.2067 8.59309 6.42626 9.03609C6.54421 9.27408 6.74599 9.47456 6.92052 9.64796L14.5178 17.2454C14.6913 17.42 14.8918 17.6218 15.1298 17.7398C15.5728 17.9593 16.0929 17.9593 16.5359 17.7398C16.774 17.6218 16.9745 17.42 17.1479 17.2454L17.2454 17.148C17.4199 16.9745 17.6218 16.774 17.7397 16.536C17.9592 16.093 17.9592 15.5729 17.7397 15.1299C17.6218 14.8919 17.4199 14.6913 17.2454 14.5179L9.64796 6.92055C9.47454 6.74601 9.27404 6.54421 9.03603 6.42625ZM8.27398 7.78595C8.30653 7.75341 8.35929 7.75341 8.39184 7.78595L11.9691 11.3632L11.3632 11.9692L7.78596 8.39189C7.75342 8.35934 7.75342 8.30658 7.78596 8.27404L8.27398 7.78595Z" fill="#1F2937"/>
</svg>
